<mxfile host="Electron" agent="Mozilla/5.0 (Windows NT 10.0; Win64; x64) AppleWebKit/537.36 (KHTML, like Gecko) draw.io/24.7.8 Chrome/128.0.6613.36 Electron/32.0.1 Safari/537.36" version="24.7.8">
  <diagram name="Page-1" id="95qWo34e3Sq9E-LJp45c">
    <mxGraphModel dx="726" dy="1285" grid="1" gridSize="10" guides="1" tooltips="1" connect="1" arrows="1" fold="1" page="1" pageScale="1" pageWidth="850" pageHeight="1400" math="0" shadow="0">
      <root>
        <mxCell id="0" />
        <mxCell id="1" parent="0" />
        <mxCell id="cyR3_7C_HaAVnIswm08G-2" value="TUASIL&amp;nbsp;&lt;div&gt;&amp;nbsp;Messaging Platform&lt;/div&gt;" style="ellipse;whiteSpace=wrap;html=1;aspect=fixed;" vertex="1" parent="1">
          <mxGeometry x="450" y="300" width="140" height="140" as="geometry" />
        </mxCell>
        <mxCell id="cyR3_7C_HaAVnIswm08G-3" value="User" style="rounded=0;whiteSpace=wrap;html=1;" vertex="1" parent="1">
          <mxGeometry x="100" y="36" width="410" height="60" as="geometry" />
        </mxCell>
        <mxCell id="cyR3_7C_HaAVnIswm08G-4" value="SMS Gateway" style="rounded=0;whiteSpace=wrap;html=1;" vertex="1" parent="1">
          <mxGeometry x="620" y="36" width="120" height="60" as="geometry" />
        </mxCell>
        <mxCell id="cyR3_7C_HaAVnIswm08G-5" value="Push Notification Service" style="rounded=0;whiteSpace=wrap;html=1;" vertex="1" parent="1">
          <mxGeometry x="200" y="540" width="240" height="60" as="geometry" />
        </mxCell>
        <mxCell id="cyR3_7C_HaAVnIswm08G-6" value="Cloud/Media Storage" style="rounded=0;whiteSpace=wrap;html=1;" vertex="1" parent="1">
          <mxGeometry x="640" y="540" width="120" height="60" as="geometry" />
        </mxCell>
        <mxCell id="cyR3_7C_HaAVnIswm08G-10" value="" style="endArrow=classic;html=1;rounded=0;exitX=0;exitY=1;exitDx=0;exitDy=0;entryX=0;entryY=0.5;entryDx=0;entryDy=0;" edge="1" parent="1" source="cyR3_7C_HaAVnIswm08G-3" target="cyR3_7C_HaAVnIswm08G-2">
          <mxGeometry width="50" height="50" relative="1" as="geometry">
            <mxPoint x="320" y="380" as="sourcePoint" />
            <mxPoint x="370" y="330" as="targetPoint" />
          </mxGeometry>
        </mxCell>
        <mxCell id="cyR3_7C_HaAVnIswm08G-11" value="Registration Data" style="edgeLabel;html=1;align=center;verticalAlign=middle;resizable=0;points=[];rotation=35;" vertex="1" connectable="0" parent="cyR3_7C_HaAVnIswm08G-10">
          <mxGeometry x="0.2745" y="6" relative="1" as="geometry">
            <mxPoint y="1" as="offset" />
          </mxGeometry>
        </mxCell>
        <mxCell id="cyR3_7C_HaAVnIswm08G-12" value="" style="endArrow=classic;html=1;rounded=0;exitX=0.078;exitY=0.967;exitDx=0;exitDy=0;entryX=0.016;entryY=0.356;entryDx=0;entryDy=0;entryPerimeter=0;exitPerimeter=0;" edge="1" parent="1" source="cyR3_7C_HaAVnIswm08G-3" target="cyR3_7C_HaAVnIswm08G-2">
          <mxGeometry width="50" height="50" relative="1" as="geometry">
            <mxPoint x="290" y="250" as="sourcePoint" />
            <mxPoint x="460" y="380" as="targetPoint" />
          </mxGeometry>
        </mxCell>
        <mxCell id="cyR3_7C_HaAVnIswm08G-13" value="Registration Data" style="edgeLabel;html=1;align=center;verticalAlign=middle;resizable=0;points=[];rotation=35;" vertex="1" connectable="0" parent="cyR3_7C_HaAVnIswm08G-12">
          <mxGeometry x="0.2745" y="6" relative="1" as="geometry">
            <mxPoint y="1" as="offset" />
          </mxGeometry>
        </mxCell>
        <mxCell id="cyR3_7C_HaAVnIswm08G-14" value="" style="endArrow=classic;html=1;rounded=0;exitX=0.154;exitY=1;exitDx=0;exitDy=0;entryX=0.05;entryY=0.243;entryDx=0;entryDy=0;entryPerimeter=0;exitPerimeter=0;" edge="1" parent="1" source="cyR3_7C_HaAVnIswm08G-3" target="cyR3_7C_HaAVnIswm08G-2">
          <mxGeometry width="50" height="50" relative="1" as="geometry">
            <mxPoint x="244" y="218" as="sourcePoint" />
            <mxPoint x="462" y="360" as="targetPoint" />
          </mxGeometry>
        </mxCell>
        <mxCell id="cyR3_7C_HaAVnIswm08G-15" value="Messages" style="edgeLabel;html=1;align=center;verticalAlign=middle;resizable=0;points=[];rotation=35;" vertex="1" connectable="0" parent="cyR3_7C_HaAVnIswm08G-14">
          <mxGeometry x="0.2745" y="6" relative="1" as="geometry">
            <mxPoint y="1" as="offset" />
          </mxGeometry>
        </mxCell>
        <mxCell id="cyR3_7C_HaAVnIswm08G-16" value="" style="endArrow=classic;html=1;rounded=0;exitX=0.222;exitY=1;exitDx=0;exitDy=0;entryX=0;entryY=0;entryDx=0;entryDy=0;exitPerimeter=0;" edge="1" parent="1" source="cyR3_7C_HaAVnIswm08G-3" target="cyR3_7C_HaAVnIswm08G-2">
          <mxGeometry width="50" height="50" relative="1" as="geometry">
            <mxPoint x="270" y="219" as="sourcePoint" />
            <mxPoint x="467" y="344" as="targetPoint" />
          </mxGeometry>
        </mxCell>
        <mxCell id="cyR3_7C_HaAVnIswm08G-17" value="Chat Commands" style="edgeLabel;html=1;align=center;verticalAlign=middle;resizable=0;points=[];rotation=35;" vertex="1" connectable="0" parent="cyR3_7C_HaAVnIswm08G-16">
          <mxGeometry x="0.2745" y="6" relative="1" as="geometry">
            <mxPoint y="1" as="offset" />
          </mxGeometry>
        </mxCell>
        <mxCell id="cyR3_7C_HaAVnIswm08G-18" value="" style="endArrow=classic;html=1;rounded=0;exitX=0.305;exitY=0.983;exitDx=0;exitDy=0;entryX=0.223;entryY=0.088;entryDx=0;entryDy=0;exitPerimeter=0;entryPerimeter=0;" edge="1" parent="1" source="cyR3_7C_HaAVnIswm08G-3" target="cyR3_7C_HaAVnIswm08G-2">
          <mxGeometry width="50" height="50" relative="1" as="geometry">
            <mxPoint x="300" y="218" as="sourcePoint" />
            <mxPoint x="481" y="331" as="targetPoint" />
          </mxGeometry>
        </mxCell>
        <mxCell id="cyR3_7C_HaAVnIswm08G-19" value="Profile Updates" style="edgeLabel;html=1;align=center;verticalAlign=middle;resizable=0;points=[];rotation=35;" vertex="1" connectable="0" parent="cyR3_7C_HaAVnIswm08G-18">
          <mxGeometry x="0.2745" y="6" relative="1" as="geometry">
            <mxPoint y="1" as="offset" />
          </mxGeometry>
        </mxCell>
        <mxCell id="cyR3_7C_HaAVnIswm08G-20" value="" style="endArrow=classic;html=1;rounded=0;exitX=0.385;exitY=1;exitDx=0;exitDy=0;entryX=0.3;entryY=0.023;entryDx=0;entryDy=0;exitPerimeter=0;entryPerimeter=0;" edge="1" parent="1" source="cyR3_7C_HaAVnIswm08G-3" target="cyR3_7C_HaAVnIswm08G-2">
          <mxGeometry width="50" height="50" relative="1" as="geometry">
            <mxPoint x="324" y="218" as="sourcePoint" />
            <mxPoint x="491" y="322" as="targetPoint" />
          </mxGeometry>
        </mxCell>
        <mxCell id="cyR3_7C_HaAVnIswm08G-21" value="Contact Actions" style="edgeLabel;html=1;align=center;verticalAlign=middle;resizable=0;points=[];rotation=35;" vertex="1" connectable="0" parent="cyR3_7C_HaAVnIswm08G-20">
          <mxGeometry x="0.2745" y="6" relative="1" as="geometry">
            <mxPoint y="-1" as="offset" />
          </mxGeometry>
        </mxCell>
        <mxCell id="cyR3_7C_HaAVnIswm08G-22" value="" style="endArrow=classic;html=1;rounded=0;exitX=0.466;exitY=1.033;exitDx=0;exitDy=0;entryX=0.437;entryY=0.017;entryDx=0;entryDy=0;exitPerimeter=0;entryPerimeter=0;" edge="1" parent="1" source="cyR3_7C_HaAVnIswm08G-3" target="cyR3_7C_HaAVnIswm08G-2">
          <mxGeometry width="50" height="50" relative="1" as="geometry">
            <mxPoint x="349" y="218" as="sourcePoint" />
            <mxPoint x="502" y="313" as="targetPoint" />
          </mxGeometry>
        </mxCell>
        <mxCell id="cyR3_7C_HaAVnIswm08G-23" value="Privacy Settings" style="edgeLabel;html=1;align=center;verticalAlign=middle;resizable=0;points=[];rotation=35;" vertex="1" connectable="0" parent="cyR3_7C_HaAVnIswm08G-22">
          <mxGeometry x="0.2745" y="6" relative="1" as="geometry">
            <mxPoint y="-1" as="offset" />
          </mxGeometry>
        </mxCell>
        <mxCell id="cyR3_7C_HaAVnIswm08G-24" value="" style="endArrow=classic;html=1;rounded=0;entryX=0.562;entryY=0.975;entryDx=0;entryDy=0;entryPerimeter=0;exitX=0.5;exitY=0;exitDx=0;exitDy=0;" edge="1" parent="1" source="cyR3_7C_HaAVnIswm08G-2" target="cyR3_7C_HaAVnIswm08G-3">
          <mxGeometry width="50" height="50" relative="1" as="geometry">
            <mxPoint x="510" y="270" as="sourcePoint" />
            <mxPoint x="628" y="292" as="targetPoint" />
          </mxGeometry>
        </mxCell>
        <mxCell id="cyR3_7C_HaAVnIswm08G-25" value="Authentication Response" style="edgeLabel;html=1;align=center;verticalAlign=middle;resizable=0;points=[];rotation=45;" vertex="1" connectable="0" parent="cyR3_7C_HaAVnIswm08G-24">
          <mxGeometry x="0.2745" y="6" relative="1" as="geometry">
            <mxPoint y="-23" as="offset" />
          </mxGeometry>
        </mxCell>
        <mxCell id="cyR3_7C_HaAVnIswm08G-26" value="" style="endArrow=classic;html=1;rounded=0;entryX=0.625;entryY=0.935;entryDx=0;entryDy=0;entryPerimeter=0;exitX=0.529;exitY=0.009;exitDx=0;exitDy=0;exitPerimeter=0;" edge="1" parent="1" source="cyR3_7C_HaAVnIswm08G-2" target="cyR3_7C_HaAVnIswm08G-3">
          <mxGeometry width="50" height="50" relative="1" as="geometry">
            <mxPoint x="530" y="310" as="sourcePoint" />
            <mxPoint x="340" y="105" as="targetPoint" />
          </mxGeometry>
        </mxCell>
        <mxCell id="cyR3_7C_HaAVnIswm08G-27" value="OTP" style="edgeLabel;html=1;align=center;verticalAlign=middle;resizable=0;points=[];rotation=45;" vertex="1" connectable="0" parent="cyR3_7C_HaAVnIswm08G-26">
          <mxGeometry x="0.2745" y="6" relative="1" as="geometry">
            <mxPoint y="-23" as="offset" />
          </mxGeometry>
        </mxCell>
        <mxCell id="cyR3_7C_HaAVnIswm08G-28" value="" style="endArrow=classic;html=1;rounded=0;entryX=0.691;entryY=0.955;entryDx=0;entryDy=0;entryPerimeter=0;" edge="1" parent="1" target="cyR3_7C_HaAVnIswm08G-3">
          <mxGeometry width="50" height="50" relative="1" as="geometry">
            <mxPoint x="530" y="300" as="sourcePoint" />
            <mxPoint x="366" y="102" as="targetPoint" />
          </mxGeometry>
        </mxCell>
        <mxCell id="cyR3_7C_HaAVnIswm08G-29" value="Message Content" style="edgeLabel;html=1;align=center;verticalAlign=middle;resizable=0;points=[];rotation=55;" vertex="1" connectable="0" parent="cyR3_7C_HaAVnIswm08G-28">
          <mxGeometry x="0.2745" y="6" relative="1" as="geometry">
            <mxPoint y="-23" as="offset" />
          </mxGeometry>
        </mxCell>
        <mxCell id="cyR3_7C_HaAVnIswm08G-30" value="" style="endArrow=classic;html=1;rounded=0;entryX=0.75;entryY=1;entryDx=0;entryDy=0;exitX=0.602;exitY=0.009;exitDx=0;exitDy=0;exitPerimeter=0;" edge="1" parent="1" source="cyR3_7C_HaAVnIswm08G-2" target="cyR3_7C_HaAVnIswm08G-3">
          <mxGeometry width="50" height="50" relative="1" as="geometry">
            <mxPoint x="540" y="310" as="sourcePoint" />
            <mxPoint x="393" y="103" as="targetPoint" />
          </mxGeometry>
        </mxCell>
        <mxCell id="cyR3_7C_HaAVnIswm08G-31" value="Chat History" style="edgeLabel;html=1;align=center;verticalAlign=middle;resizable=0;points=[];rotation=55;" vertex="1" connectable="0" parent="cyR3_7C_HaAVnIswm08G-30">
          <mxGeometry x="0.2745" y="6" relative="1" as="geometry">
            <mxPoint y="-23" as="offset" />
          </mxGeometry>
        </mxCell>
        <mxCell id="cyR3_7C_HaAVnIswm08G-32" value="" style="endArrow=classic;html=1;rounded=0;entryX=0.789;entryY=0.983;entryDx=0;entryDy=0;exitX=0.643;exitY=0.021;exitDx=0;exitDy=0;exitPerimeter=0;entryPerimeter=0;" edge="1" parent="1" source="cyR3_7C_HaAVnIswm08G-2" target="cyR3_7C_HaAVnIswm08G-3">
          <mxGeometry width="50" height="50" relative="1" as="geometry">
            <mxPoint x="544" y="311" as="sourcePoint" />
            <mxPoint x="418" y="106" as="targetPoint" />
          </mxGeometry>
        </mxCell>
        <mxCell id="cyR3_7C_HaAVnIswm08G-33" value="Notifications" style="edgeLabel;html=1;align=center;verticalAlign=middle;resizable=0;points=[];rotation=55;" vertex="1" connectable="0" parent="cyR3_7C_HaAVnIswm08G-32">
          <mxGeometry x="0.2745" y="6" relative="1" as="geometry">
            <mxPoint y="-23" as="offset" />
          </mxGeometry>
        </mxCell>
        <mxCell id="cyR3_7C_HaAVnIswm08G-34" value="" style="endArrow=classic;html=1;rounded=0;entryX=0.835;entryY=0.964;entryDx=0;entryDy=0;exitX=0.68;exitY=0.046;exitDx=0;exitDy=0;exitPerimeter=0;entryPerimeter=0;" edge="1" parent="1" source="cyR3_7C_HaAVnIswm08G-2" target="cyR3_7C_HaAVnIswm08G-3">
          <mxGeometry width="50" height="50" relative="1" as="geometry">
            <mxPoint x="550" y="313" as="sourcePoint" />
            <mxPoint x="433" y="105" as="targetPoint" />
          </mxGeometry>
        </mxCell>
        <mxCell id="cyR3_7C_HaAVnIswm08G-35" value="Notifications" style="edgeLabel;html=1;align=center;verticalAlign=middle;resizable=0;points=[];rotation=61;" vertex="1" connectable="0" parent="cyR3_7C_HaAVnIswm08G-34">
          <mxGeometry x="0.2745" y="6" relative="1" as="geometry">
            <mxPoint x="3" y="-23" as="offset" />
          </mxGeometry>
        </mxCell>
        <mxCell id="cyR3_7C_HaAVnIswm08G-36" value="" style="endArrow=classic;html=1;rounded=0;entryX=0.889;entryY=0.964;entryDx=0;entryDy=0;exitX=0.724;exitY=0.058;exitDx=0;exitDy=0;exitPerimeter=0;entryPerimeter=0;" edge="1" parent="1" source="cyR3_7C_HaAVnIswm08G-2" target="cyR3_7C_HaAVnIswm08G-3">
          <mxGeometry width="50" height="50" relative="1" as="geometry">
            <mxPoint x="555" y="316" as="sourcePoint" />
            <mxPoint x="452" y="104" as="targetPoint" />
          </mxGeometry>
        </mxCell>
        <mxCell id="cyR3_7C_HaAVnIswm08G-37" value="Chat Information" style="edgeLabel;html=1;align=center;verticalAlign=middle;resizable=0;points=[];rotation=65;" vertex="1" connectable="0" parent="cyR3_7C_HaAVnIswm08G-36">
          <mxGeometry x="0.2745" y="6" relative="1" as="geometry">
            <mxPoint x="4" y="-23" as="offset" />
          </mxGeometry>
        </mxCell>
        <mxCell id="cyR3_7C_HaAVnIswm08G-38" value="" style="endArrow=classic;html=1;rounded=0;entryX=0.946;entryY=1.002;entryDx=0;entryDy=0;exitX=0.749;exitY=0.066;exitDx=0;exitDy=0;exitPerimeter=0;entryPerimeter=0;" edge="1" parent="1" source="cyR3_7C_HaAVnIswm08G-2" target="cyR3_7C_HaAVnIswm08G-3">
          <mxGeometry width="50" height="50" relative="1" as="geometry">
            <mxPoint x="561" y="318" as="sourcePoint" />
            <mxPoint x="474" y="104" as="targetPoint" />
          </mxGeometry>
        </mxCell>
        <mxCell id="cyR3_7C_HaAVnIswm08G-39" value="Status Updates" style="edgeLabel;html=1;align=center;verticalAlign=middle;resizable=0;points=[];rotation=70;" vertex="1" connectable="0" parent="cyR3_7C_HaAVnIswm08G-38">
          <mxGeometry x="0.2745" y="6" relative="1" as="geometry">
            <mxPoint x="4" y="-23" as="offset" />
          </mxGeometry>
        </mxCell>
        <mxCell id="cyR3_7C_HaAVnIswm08G-40" value="" style="endArrow=classic;html=1;rounded=0;entryX=1;entryY=1;entryDx=0;entryDy=0;exitX=0.773;exitY=0.095;exitDx=0;exitDy=0;exitPerimeter=0;" edge="1" parent="1" source="cyR3_7C_HaAVnIswm08G-2" target="cyR3_7C_HaAVnIswm08G-3">
          <mxGeometry width="50" height="50" relative="1" as="geometry">
            <mxPoint x="565" y="319" as="sourcePoint" />
            <mxPoint x="498" y="106" as="targetPoint" />
          </mxGeometry>
        </mxCell>
        <mxCell id="cyR3_7C_HaAVnIswm08G-41" value="Error/Confirmation Messages" style="edgeLabel;html=1;align=center;verticalAlign=middle;resizable=0;points=[];rotation=77;" vertex="1" connectable="0" parent="cyR3_7C_HaAVnIswm08G-40">
          <mxGeometry x="0.2745" y="6" relative="1" as="geometry">
            <mxPoint x="14" y="-3" as="offset" />
          </mxGeometry>
        </mxCell>
        <mxCell id="cyR3_7C_HaAVnIswm08G-42" value="" style="endArrow=classic;html=1;rounded=0;entryX=0.25;entryY=1;entryDx=0;entryDy=0;exitX=0.806;exitY=0.1;exitDx=0;exitDy=0;exitPerimeter=0;" edge="1" parent="1" source="cyR3_7C_HaAVnIswm08G-2" target="cyR3_7C_HaAVnIswm08G-4">
          <mxGeometry width="50" height="50" relative="1" as="geometry">
            <mxPoint x="568" y="323" as="sourcePoint" />
            <mxPoint x="520" y="106" as="targetPoint" />
          </mxGeometry>
        </mxCell>
        <mxCell id="cyR3_7C_HaAVnIswm08G-43" value="OTP Request" style="edgeLabel;html=1;align=center;verticalAlign=middle;resizable=0;points=[];rotation=-68;" vertex="1" connectable="0" parent="cyR3_7C_HaAVnIswm08G-42">
          <mxGeometry x="0.2745" y="6" relative="1" as="geometry">
            <mxPoint x="-3" y="3" as="offset" />
          </mxGeometry>
        </mxCell>
        <mxCell id="cyR3_7C_HaAVnIswm08G-44" value="" style="endArrow=classic;html=1;rounded=0;entryX=0.5;entryY=1;entryDx=0;entryDy=0;exitX=0.943;exitY=0.255;exitDx=0;exitDy=0;exitPerimeter=0;" edge="1" parent="1" source="cyR3_7C_HaAVnIswm08G-2" target="cyR3_7C_HaAVnIswm08G-4">
          <mxGeometry width="50" height="50" relative="1" as="geometry">
            <mxPoint x="660" y="106" as="sourcePoint" />
            <mxPoint x="573" y="324" as="targetPoint" />
          </mxGeometry>
        </mxCell>
        <mxCell id="cyR3_7C_HaAVnIswm08G-45" value="OTP Delivery Status" style="edgeLabel;html=1;align=center;verticalAlign=middle;resizable=0;points=[];rotation=-68;" vertex="1" connectable="0" parent="cyR3_7C_HaAVnIswm08G-44">
          <mxGeometry x="0.2745" y="6" relative="1" as="geometry">
            <mxPoint x="-3" y="3" as="offset" />
          </mxGeometry>
        </mxCell>
        <mxCell id="cyR3_7C_HaAVnIswm08G-46" value="" style="endArrow=classic;html=1;rounded=0;exitX=0;exitY=0;exitDx=0;exitDy=0;entryX=0.036;entryY=0.658;entryDx=0;entryDy=0;entryPerimeter=0;" edge="1" parent="1" source="cyR3_7C_HaAVnIswm08G-5" target="cyR3_7C_HaAVnIswm08G-2">
          <mxGeometry width="50" height="50" relative="1" as="geometry">
            <mxPoint x="110" y="106" as="sourcePoint" />
            <mxPoint x="460" y="380" as="targetPoint" />
          </mxGeometry>
        </mxCell>
        <mxCell id="cyR3_7C_HaAVnIswm08G-47" value="Delivery Status  " style="edgeLabel;html=1;align=center;verticalAlign=middle;resizable=0;points=[];rotation=-30;" vertex="1" connectable="0" parent="cyR3_7C_HaAVnIswm08G-46">
          <mxGeometry x="0.2745" y="6" relative="1" as="geometry">
            <mxPoint y="1" as="offset" />
          </mxGeometry>
        </mxCell>
        <mxCell id="cyR3_7C_HaAVnIswm08G-48" value="" style="endArrow=classic;html=1;rounded=0;entryX=0.25;entryY=0;entryDx=0;entryDy=0;exitX=0;exitY=1;exitDx=0;exitDy=0;" edge="1" parent="1" source="cyR3_7C_HaAVnIswm08G-2" target="cyR3_7C_HaAVnIswm08G-5">
          <mxGeometry width="50" height="50" relative="1" as="geometry">
            <mxPoint x="460" y="470" as="sourcePoint" />
            <mxPoint x="465" y="402" as="targetPoint" />
          </mxGeometry>
        </mxCell>
        <mxCell id="cyR3_7C_HaAVnIswm08G-49" value="Notification Payload" style="edgeLabel;html=1;align=center;verticalAlign=middle;resizable=0;points=[];rotation=-30;" vertex="1" connectable="0" parent="cyR3_7C_HaAVnIswm08G-48">
          <mxGeometry x="0.2745" y="6" relative="1" as="geometry">
            <mxPoint y="1" as="offset" />
          </mxGeometry>
        </mxCell>
        <mxCell id="cyR3_7C_HaAVnIswm08G-50" value="" style="endArrow=classic;html=1;rounded=0;entryX=0;entryY=0;entryDx=0;entryDy=0;exitX=0.784;exitY=0.935;exitDx=0;exitDy=0;exitPerimeter=0;" edge="1" parent="1" source="cyR3_7C_HaAVnIswm08G-2" target="cyR3_7C_HaAVnIswm08G-6">
          <mxGeometry width="50" height="50" relative="1" as="geometry">
            <mxPoint x="592" y="346" as="sourcePoint" />
            <mxPoint x="690" y="106" as="targetPoint" />
          </mxGeometry>
        </mxCell>
        <mxCell id="cyR3_7C_HaAVnIswm08G-51" value="Media Upload" style="edgeLabel;html=1;align=center;verticalAlign=middle;resizable=0;points=[];rotation=53;" vertex="1" connectable="0" parent="cyR3_7C_HaAVnIswm08G-50">
          <mxGeometry x="0.2745" y="6" relative="1" as="geometry">
            <mxPoint x="-3" y="-10" as="offset" />
          </mxGeometry>
        </mxCell>
        <mxCell id="cyR3_7C_HaAVnIswm08G-52" value="" style="endArrow=classic;html=1;rounded=0;entryX=0.931;entryY=0.761;entryDx=0;entryDy=0;exitX=0.25;exitY=0;exitDx=0;exitDy=0;entryPerimeter=0;" edge="1" parent="1" source="cyR3_7C_HaAVnIswm08G-6" target="cyR3_7C_HaAVnIswm08G-2">
          <mxGeometry width="50" height="50" relative="1" as="geometry">
            <mxPoint x="650" y="550" as="sourcePoint" />
            <mxPoint x="570" y="441" as="targetPoint" />
          </mxGeometry>
        </mxCell>
        <mxCell id="cyR3_7C_HaAVnIswm08G-53" value="Media Retrieval" style="edgeLabel;html=1;align=center;verticalAlign=middle;resizable=0;points=[];rotation=53;" vertex="1" connectable="0" parent="cyR3_7C_HaAVnIswm08G-52">
          <mxGeometry x="0.2745" y="6" relative="1" as="geometry">
            <mxPoint x="-3" y="-10" as="offset" />
          </mxGeometry>
        </mxCell>
      </root>
    </mxGraphModel>
  </diagram>
</mxfile>
